<?xml version="1.0" standalone="no"?>
<svg xmlns="http://www.w3.org/2000/svg" width="358.0322816166884" height="92.6322816166884" viewBox="0 0 358.0322816166884 92.6322816166884"><g fill="#0e39d5" color="#0e39d5" transform="translate(0 0.927) scale(1.8526457)"><svg width="50.0" height="49.0" x="0.0" y="0.0" viewBox="0 0 50 49"><path fill="currentColor" fill-rule="nonzero" d="M25 .01c6.72 0 12.8 2.72 17.2 7.12 4.4 4.4 7.12 10.48 7.12 17.2 0 5.21-1.64 10.04-4.43 14-2.5 3.54-5.36 5.99-9.29 7.9-3.2 1.55-6.8 2.43-10.6 2.43-3.6 0-7.01-.78-10.08-2.18-2.09-.95-2.73-1.34-4.52-2.69-.92-.69-1.79-1.44-2.6-2.26-.29-.29-.58-.59-.85-.9-.96-1.07-.5-.49-1.46-1.78A24.225 24.225 0 0 1 .68 24.32c0-6.72 2.72-12.8 7.12-17.2C12.2 2.72 18.28.01 25 .01zM4.36 12.74h41.28a23.626 23.626 0 0 0-3.9-5.14C37.45 3.32 31.54.67 25 .67 18.46.67 12.55 3.31 8.26 7.6a23.946 23.946 0 0 0-3.9 5.14zm41.5.41H4.14a23.82 23.82 0 0 0-1.94 4.82h45.6c-.47-1.69-1.12-3.31-1.94-4.82zm2.09 5.37H2.05c-.38 1.51-.62 3.08-.69 4.69h47.28a23.89 23.89 0 0 0-.69-4.69zm.71 5.36H1.34c0 .15-.01.3-.01.45 0 1.4.12 2.77.35 4.1h46.63c.23-1.33.35-2.7.35-4.1.01-.15 0-.3 0-.45zm-.5 5.37H1.84c.32 1.53.79 3 1.39 4.4h43.53c.6-1.4 1.07-2.87 1.4-4.4zm-1.84 5.38H3.68c.71 1.48 1.58 2.87 2.57 4.15h37.49c1-1.28 1.86-2.67 2.58-4.15zm-3.66 5.46H7.34c.3.33.61.66.92.97 1.09 1.09 2.28 2.07 3.57 2.93h26.34a23.889 23.889 0 0 0 4.49-3.9zm-7.01 5.38h-21.3C17.55 47.09 21.17 48 25 48s7.45-.91 10.65-2.53z"></path></svg></g><path fill="#000000" fill-rule="nonzero" d="M32.96 27.52L24.20 27.52L24.20 17.60Q24.20 15.76 24.34 13.82Q24.48 11.88 24.64 10.56Q24.80 9.24 24.84 8.88L24.84 8.88L24.68 8.88L19.60 27.52L12.68 27.52L7.56 8.92L7.40 8.92Q7.44 9.28 7.62 10.58Q7.80 11.88 7.96 13.82Q8.12 15.76 8.12 17.60L8.12 17.60L8.12 27.52L0 27.52L0 0L12.48 0L16.64 15.88L16.80 15.88L20.92 0L32.96 0L32.96 27.52ZM66.12 27.52L56.76 27.52L55.60 23.64L45.96 23.64L44.80 27.52L35.76 27.52L45.80 0L56.08 0L66.12 27.52ZM50.72 7.68L47.80 17.48L53.76 17.48L50.88 7.68L50.72 7.68ZM84.88 0Q87.44 0 89.44 1.18Q91.44 2.36 92.56 4.42Q93.68 6.48 93.68 9.04L93.68 9.04L93.68 9.56Q93.68 12.12 92.56 14.20Q91.44 16.28 89.44 17.46Q87.44 18.64 84.88 18.64L84.88 18.64L78.28 18.64L78.28 27.52L69.44 27.52L69.44 0L84.88 0ZM78.28 6.52L78.28 12.20L81.92 12.20Q83.32 12.20 84.02 11.48Q84.72 10.76 84.72 9.52L84.72 9.52L84.72 9.20Q84.72 7.92 84.02 7.22Q83.32 6.52 81.92 6.52L81.92 6.52L78.28 6.52ZM122.72 27.52L113.36 27.52L112.20 23.64L102.56 23.64L101.40 27.52L92.36 27.52L102.40 0L112.68 0L122.72 27.52ZM107.32 7.68L104.40 17.48L110.36 17.48L107.48 7.68L107.32 7.68Z" transform="translate(107.633 0) scale(2.041)"></path><path fill="#000000" fill-rule="nonzero" d="M30.36 28L21.00 28L19.84 24.12L10.20 24.12L9.04 28L0 28L10.04 0.48L20.32 0.48L30.36 28ZM14.96 8.16L12.04 17.96L18.00 17.96L15.12 8.16L14.96 8.16ZM46.08 0Q52.20 0 55.76 3.06Q59.32 6.12 59.32 11.80L59.32 11.80L50.88 11.80Q50.88 9.40 49.62 8Q48.36 6.60 46.04 6.60L46.04 6.60Q43.36 6.60 42.10 8.28Q40.84 9.96 40.84 12.96L40.84 12.96L40.84 15.52Q40.84 18.48 42.10 20.18Q43.36 21.88 45.96 21.88L45.96 21.88Q48.52 21.88 49.84 20.56Q51.16 19.24 51.16 16.84L51.16 16.84L59.32 16.84Q59.32 22.48 55.86 25.48Q52.40 28.48 46.08 28.48L46.08 28.48Q39.04 28.48 35.42 24.88Q31.80 21.28 31.80 14.24L31.80 14.24Q31.80 7.20 35.42 3.60Q39.04 0 46.08 0L46.08 0ZM77.20 0Q83.32 0 86.88 3.06Q90.44 6.12 90.44 11.80L90.44 11.80L82 11.80Q82 9.40 80.74 8Q79.48 6.60 77.16 6.60L77.16 6.60Q74.48 6.60 73.22 8.28Q71.96 9.96 71.96 12.96L71.96 12.96L71.96 15.52Q71.96 18.48 73.22 20.18Q74.48 21.88 77.08 21.88L77.08 21.88Q79.64 21.88 80.96 20.56Q82.28 19.24 82.28 16.84L82.28 16.84L90.44 16.84Q90.44 22.48 86.98 25.48Q83.52 28.48 77.20 28.48L77.20 28.48Q70.16 28.48 66.54 24.88Q62.92 21.28 62.92 14.24L62.92 14.24Q62.92 7.20 66.54 3.60Q70.16 0 77.20 0L77.20 0ZM95.20 28L95.20 0.48L119.00 0.48L119.00 7.08L104.04 7.08L104.04 10.88L116.84 10.88L116.84 17.20L104.04 17.20L104.04 21.40L119.28 21.40L119.28 28L95.20 28ZM135.64 0Q140.92 0 144.32 2.14Q147.72 4.28 147.80 8.48L147.80 8.48L147.80 8.96L139.52 8.96L139.52 8.80Q139.52 7.60 138.64 6.80Q137.76 6 135.96 6L135.96 6Q134.20 6 133.26 6.52Q132.32 7.04 132.32 7.80L132.32 7.80Q132.32 8.88 133.60 9.40Q134.88 9.92 137.72 10.48L137.72 10.48Q141.04 11.16 143.18 11.90Q145.32 12.64 146.92 14.32Q148.52 16 148.56 18.88L148.56 18.88Q148.56 23.76 145.26 26.12Q141.96 28.48 136.44 28.48L136.44 28.48Q130 28.48 126.42 26.32Q122.84 24.16 122.84 18.68L122.84 18.68L131.20 18.68Q131.20 20.76 132.28 21.46Q133.36 22.16 135.64 22.16L135.64 22.16Q137.32 22.16 138.42 21.80Q139.52 21.44 139.52 20.32L139.52 20.32Q139.52 19.32 138.30 18.82Q137.08 18.32 134.32 17.76L134.32 17.76Q130.96 17.04 128.76 16.26Q126.56 15.48 124.92 13.68Q123.28 11.88 123.28 8.80L123.28 8.80Q123.28 4.28 126.78 2.14Q130.28 0 135.64 0L135.64 0ZM162.20 28L153.36 28L153.36 0.48L162.20 0.48L162.20 28ZM186.84 0.48Q188.92 0.48 190.66 1.34Q192.40 2.20 193.42 3.76Q194.44 5.32 194.44 7.24L194.44 7.24Q194.44 12.32 189.84 13.64L189.84 13.64L189.84 13.80Q195.08 15 195.08 20.68L195.08 20.68Q195.08 22.84 194.02 24.50Q192.96 26.16 191.12 27.08Q189.28 28 187.08 28L187.08 28L168.52 28L168.52 0.48L186.84 0.48ZM177.36 6.52L177.36 11.20L183.44 11.20Q184.32 11.20 184.90 10.58Q185.48 9.96 185.48 9.04L185.48 9.04L185.48 8.64Q185.48 7.76 184.88 7.14Q184.28 6.52 183.44 6.52L183.44 6.52L177.36 6.52ZM177.36 16.88L177.36 21.60L184.08 21.60Q184.96 21.60 185.54 20.98Q186.12 20.36 186.12 19.44L186.12 19.44L186.12 19.04Q186.12 18.12 185.54 17.50Q184.96 16.88 184.08 16.88L184.08 16.88L177.36 16.88ZM199.64 28L199.64 0.48L208.48 0.48L208.48 20.96L222.60 20.96L222.60 28L199.64 28ZM226.32 28L226.32 0.48L250.12 0.48L250.12 7.08L235.16 7.08L235.16 10.88L247.96 10.88L247.96 17.20L235.16 17.20L235.16 21.40L250.40 21.40L250.40 28L226.32 28Z" transform="translate(107.633 64.153) scale(1)"></path></svg>